<svg width="24" height="23" viewBox="0 0 24 23" fill="none" xmlns="http://www.w3.org/2000/svg">
<path id="Vector" d="M21.3077 7.4295C22.305 7.76083 23 8.7455 23 9.876V14.8763C23 16.2017 22.0444 17.3263 20.7662 17.4348C20.3826 17.4663 19.999 17.4955 19.6154 17.5188V21.125L16.2308 17.625C14.7032 17.625 13.1914 17.5608 11.6954 17.4348C11.3697 17.4076 11.0529 17.3115 10.7646 17.1525M21.3077 7.4295C21.1334 7.37148 20.9532 7.33429 20.7707 7.31867C17.7493 7.0593 14.7123 7.0593 11.6909 7.31867C10.4149 7.42833 9.46154 8.55183 9.46154 9.876V14.8763C9.46154 15.8528 9.98051 16.7197 10.7646 17.1525M21.3077 7.4295V5.24317C21.3077 3.352 20.008 1.71283 18.1938 1.469C15.8594 1.15609 13.5078 0.999432 11.1538 1C8.76769 1 6.41764 1.15983 4.11385 1.469C2.29969 1.71283 1 3.352 1 5.24317V12.5068C1 14.398 2.29969 16.0372 4.11385 16.281C4.76482 16.3685 5.41918 16.4443 6.07692 16.5073V22L10.7646 17.1525" stroke="#FFFF66" stroke-width="1.5" stroke-linecap="round" stroke-linejoin="round"/>
</svg>
