<svg width="24" height="24" viewBox="0 0 24 24" fill="none" xmlns="http://www.w3.org/2000/svg">
<g id="&#240;&#159;&#166;&#134; icon &#34;Emoji&#34;">
<path id="Vector" d="M12 0.5C18.3513 0.5 23.5 5.64872 23.5 12C23.5 18.3513 18.3513 23.5 12 23.5C5.64872 23.5 0.5 18.3513 0.5 12C0.5 5.64872 5.64872 0.5 12 0.5ZM12 2.41667C6.70728 2.41667 2.41667 6.70728 2.41667 12C2.41667 17.2927 6.70728 21.5833 12 21.5833C17.2927 21.5833 21.5833 17.2927 21.5833 12C21.5833 6.70728 17.2927 2.41667 12 2.41667ZM15.5718 15.1942C15.9248 14.7998 16.5306 14.7663 16.9251 15.1192C17.3193 15.4722 17.3529 16.0781 17 16.4725C15.773 17.8433 13.9869 18.7083 12 18.7083C10.0131 18.7083 8.227 17.8433 7.00003 16.4725C6.64706 16.0781 6.68062 15.4722 7.07499 15.1192C7.46938 14.7663 8.07522 14.7998 8.42821 15.1942C9.30697 16.176 10.581 16.7917 12 16.7917C13.419 16.7917 14.693 16.176 15.5718 15.1942ZM8.64583 8.64583C9.43974 8.64583 10.0833 9.28943 10.0833 10.0833C10.0833 10.8772 9.43974 11.5208 8.64583 11.5208C7.85193 11.5208 7.20833 10.8772 7.20833 10.0833C7.20833 9.28943 7.85193 8.64583 8.64583 8.64583ZM15.3542 8.64583C16.148 8.64583 16.7917 9.28943 16.7917 10.0833C16.7917 10.8772 16.148 11.5208 15.3542 11.5208C14.5603 11.5208 13.9167 10.8772 13.9167 10.0833C13.9167 9.28943 14.5603 8.64583 15.3542 8.64583Z" fill="#3D3D3D"/>
</g>
</svg>
