<svg width="27" height="27" viewBox="0 0 27 27" fill="none" xmlns="http://www.w3.org/2000/svg">
<path id="Vector" d="M21.809 22.8402C20.8386 21.5553 19.583 20.5133 18.1412 19.7962C16.6995 19.0792 15.1109 18.7067 13.5007 18.7082C11.8905 18.7067 10.3019 19.0792 8.86016 19.7962C7.41841 20.5133 6.16283 21.5553 5.19236 22.8402M21.809 22.8402C23.7028 21.1557 25.0384 18.9354 25.6412 16.4736C26.2441 14.0118 26.0844 11.4249 25.1833 9.05594C24.2822 6.687 22.6823 4.64795 20.5957 3.2092C18.5091 1.77046 16.0345 1 13.5 1C10.9655 1 8.49088 1.77046 6.40431 3.2092C4.31774 4.64795 2.71782 6.687 1.81672 9.05594C0.915613 11.4249 0.755907 14.0118 1.35878 16.4736C1.96165 18.9354 3.29861 21.1557 5.19236 22.8402M21.809 22.8402C19.5229 24.8794 16.5641 26.0043 13.5007 26C10.4368 26.0047 7.4788 24.8797 5.19236 22.8402M17.6674 10.3747C17.6674 11.4798 17.2284 12.5396 16.447 13.3211C15.6656 14.1025 14.6058 14.5415 13.5007 14.5415C12.3956 14.5415 11.3358 14.1025 10.5544 13.3211C9.77302 12.5396 9.33403 11.4798 9.33403 10.3747C9.33403 9.26965 9.77302 8.20983 10.5544 7.42841C11.3358 6.647 12.3956 6.20801 13.5007 6.20801C14.6058 6.20801 15.6656 6.647 16.447 7.42841C17.2284 8.20983 17.6674 9.26965 17.6674 10.3747Z" stroke="#FFFF66" stroke-width="1.5" stroke-linecap="round" stroke-linejoin="round"/>
</svg>
