<svg width="24" height="26" viewBox="0 0 24 26" fill="none" xmlns="http://www.w3.org/2000/svg">
<g id="&#240;&#159;&#166;&#134; icon &#34;notification active&#34;">
<path id="Vector" d="M12.018 25.018C10.6912 25.0115 9.6155 23.9411 9.6024 22.6144H14.4096C14.4125 22.9357 14.3517 23.2543 14.2305 23.5518C13.9151 24.2752 13.2711 24.8028 12.5 24.9699H12.4939H12.4783H12.4663H12.4531H12.4447C12.3042 24.999 12.1614 25.0151 12.018 25.018ZM21.6325 21.4126H2.40361V19.009L4.80721 17.8072V11.1973C4.7439 9.50169 5.12682 7.81918 5.91768 6.31797C6.70491 4.92569 8.05052 3.93705 9.61442 3.60189V0.981964H14.4216V3.60189C17.5211 4.3398 19.2288 7.03665 19.2288 11.1973V17.8072L21.6325 19.009V21.4126ZM24 10.5964H21.5964C21.4845 7.4884 19.9904 4.59279 17.5223 2.70054L19.2288 0.981964C20.6663 2.10022 21.8277 3.53352 22.6239 5.17145C23.4472 6.86723 23.9154 8.71324 24 10.5964ZM2.40361 10.5964H0C0.0845588 8.71324 0.552805 6.86722 1.37606 5.17145C2.17221 3.53352 3.33374 2.10022 4.77116 0.981964L6.47772 2.70054C4.00935 4.59256 2.5152 7.48831 2.40361 10.5964Z" fill="black"/>
</g>
</svg>
