<svg width="17" height="18" viewBox="0 0 17 18" fill="none" xmlns="http://www.w3.org/2000/svg">
<path id="Icon / magnifyingglass" d="M6.94265 13.8853C8.45035 13.8853 9.84068 13.3978 10.9782 12.5852L15.2576 16.8646C15.4562 17.0632 15.718 17.1625 15.9979 17.1625C16.5847 17.1625 17 16.7111 17 16.1333C17 15.8624 16.9097 15.6006 16.7111 15.411L12.4588 11.1497C13.3526 9.97608 13.8853 8.52255 13.8853 6.94263C13.8853 3.12372 10.7616 -1.9455e-05 6.94265 -1.9455e-05C3.13277 -1.9455e-05 0 3.11469 0 6.94263C0 10.7615 3.12374 13.8853 6.94265 13.8853ZM6.94265 12.3866C3.96336 12.3866 1.49867 9.92192 1.49867 6.94263C1.49867 3.96334 3.96336 1.49865 6.94265 1.49865C9.92193 1.49865 12.3866 3.96334 12.3866 6.94263C12.3866 9.92192 9.92193 12.3866 6.94265 12.3866Z" fill="black"/>
</svg>
