<svg width="40" height="40" viewBox="0 0 40 40" fill="none" xmlns="http://www.w3.org/2000/svg">
<g id="Frame">
<path id="Vector" d="M29.9701 31.2083C28.8055 29.6664 27.2989 28.416 25.5687 27.5556C23.8386 26.6952 21.9324 26.2482 20.0001 26.25C18.0678 26.2482 16.1616 26.6952 14.4315 27.5556C12.7014 28.416 11.1947 29.6664 10.0301 31.2083M29.9701 31.2083C32.2426 29.187 33.8453 26.5226 34.5687 23.5685C35.2922 20.6144 35.1005 17.5101 34.0192 14.6675C32.9379 11.8248 31.018 9.37796 28.5141 7.65149C26.0102 5.92503 23.0407 5.00049 19.9993 5.00049C16.9579 5.00049 13.9883 5.92503 11.4844 7.65149C8.98056 9.37796 7.06065 11.8248 5.97933 14.6675C4.898 17.5101 4.70636 20.6144 5.4298 23.5685C6.15325 26.5226 7.7576 29.187 10.0301 31.2083M29.9701 31.2083C27.2268 33.6553 23.6761 35.0052 20.0001 35C16.3235 35.0056 12.7738 33.6557 10.0301 31.2083M25.0001 16.25C25.0001 17.5761 24.4733 18.8479 23.5356 19.7855C22.598 20.7232 21.3262 21.25 20.0001 21.25C18.674 21.25 17.4023 20.7232 16.4646 19.7855C15.5269 18.8479 15.0001 17.5761 15.0001 16.25C15.0001 14.9239 15.5269 13.6521 16.4646 12.7145C17.4023 11.7768 18.674 11.25 20.0001 11.25C21.3262 11.25 22.598 11.7768 23.5356 12.7145C24.4733 13.6521 25.0001 14.9239 25.0001 16.25Z" stroke="black" stroke-width="1.5" stroke-linecap="round" stroke-linejoin="round"/>
</g>
</svg>
